<?xml version="1.0" encoding="utf-8"?>
<!-- Generator: Adobe Illustrator 16.0.3, SVG Export Plug-In . SVG Version: 6.00 Build 0)  -->
<!DOCTYPE svg PUBLIC "-//W3C//DTD SVG 1.1//EN" "http://www.w3.org/Graphics/SVG/1.1/DTD/svg11.dtd">
<svg version="1.1" id="Layer_1" xmlns="http://www.w3.org/2000/svg" xmlns:xlink="http://www.w3.org/1999/xlink" x="0px" y="0px"
	 width="176.667px" height="68px" viewBox="0 0 176.667 68" enable-background="new 0 0 176.667 68" xml:space="preserve">
<g>
	<path fill="#6699CC" d="M19.002,41.612h-6.065V32.97h6.065c0.723,2.352,2.086,3.527,4.089,3.527c1.446,0,2.17-0.581,2.17-1.744
		c0-0.607-0.252-1.111-0.755-1.511c-0.543-0.439-1.686-1.046-3.43-1.821c-2.196-0.995-3.811-1.854-4.844-2.577
		c-0.969-0.659-1.796-1.57-2.48-2.732c-0.685-1.149-1.027-2.422-1.027-3.817c0-2.506,0.814-4.463,2.441-5.872
		c1.615-1.408,3.604-2.112,5.968-2.112c2.364,0,4.367,0.672,6.007,2.015v-1.667h6.104v7.673h-6.026
		c-0.736-2.118-2.042-3.178-3.915-3.178c-1.317,0-1.977,0.562-1.977,1.686c0,0.542,0.188,0.949,0.562,1.221
		c0.362,0.284,1.531,0.911,3.507,1.879c2.648,1.318,4.418,2.28,5.31,2.887c0.452,0.297,0.914,0.714,1.385,1.25
		s0.862,1.088,1.172,1.657c0.71,1.266,1.066,2.635,1.066,4.108c0,2.261-0.84,4.173-2.519,5.736c-1.68,1.589-3.798,2.383-6.356,2.383
		c-2.377,0-4.528-0.704-6.453-2.112V41.612z"/>
	<path fill="#6699CC" d="M53.219,41.845h-8.487l-7.596-20.734h-1.86v-6.453h13.971v6.453h-2.016l3.178,11.607l4.03-11.607h-1.996
		v-6.453h11.743v6.453h-1.996l4.089,11.607l3.216-11.607h-1.938v-6.453h10.871v6.453h-1.86l-7.673,20.734h-8.371l-3.643-10.386
		L53.219,41.845z"/>
	<path fill="#6699CC" d="M78.348,28.067c0-2.248,0.549-4.424,1.647-6.53c1.085-2.093,2.771-3.856,5.058-5.29
		c0.814-0.504,1.65-0.904,2.509-1.201c0.859-0.297,1.792-0.526,2.8-0.688c1.007-0.162,2.067-0.242,3.177-0.242
		c4.832,0,8.571,1.415,11.22,4.244c1.318,1.395,2.313,2.907,2.984,4.534c0.672,1.628,1.008,3.353,1.008,5.174
		c0,3.759-1.369,7.028-4.108,9.805c-2.738,2.777-6.439,4.166-11.104,4.166c-4.508,0-8.164-1.305-10.967-3.914
		C79.756,35.528,78.348,32.175,78.348,28.067z M90.052,28.067c0,2.997,0.291,5.019,0.872,6.065c0.555,1.059,1.427,1.589,2.615,1.589
		c1.176,0,2.055-0.51,2.636-1.531c0.581-1.034,0.872-3.075,0.872-6.124c0-2.958-0.284-4.973-0.853-6.046
		c-0.556-1.059-1.44-1.589-2.655-1.589c-1.162,0-2.034,0.511-2.615,1.531C90.343,22.984,90.052,25.019,90.052,28.067z"/>
	<path fill="#6699CC" d="M136.786,41.612H111.13V35.16h2.422V21.111h-2.422v-6.453h15.404v6.453h-2.558V35.16h6.375v-4.321h6.434
		V41.612z"/>
	<path fill="#6699CC" d="M163.949,41.612h-25.714V35.16h2.093V21.111h-2.131v-6.453h25.752v8.623h-7.072v-2.17h-6.123v4.147h5.328
		v5.484h-5.328v4.418h6.123v-2.17h7.072V41.612z"/>
</g>
<g>
	<path fill="#FFFFFF" d="M19.785,54.249c-0.052-0.09-0.078-0.191-0.078-0.305c0-0.17,0.021-0.359,0.063-0.567
		s0.069-0.34,0.078-0.397l0.737-3.813c0.029-0.085,0.043-0.199,0.043-0.34c-0.227,0.369-0.452,0.664-0.673,0.886
		c-0.222,0.222-0.494,0.333-0.815,0.333c-0.312,0-0.624-0.148-0.936-0.446s-0.569-0.6-0.772-0.907
		c-0.203-0.307-0.446-0.702-0.73-1.183c-0.038-0.066-0.104-0.166-0.198-0.298c-0.18-0.274-0.317-0.505-0.411-0.694
		c-0.095-0.189-0.142-0.378-0.142-0.567c0-0.246,0.104-0.369,0.312-0.369c0.085,0,0.222,0.057,0.411,0.17s0.356,0.244,0.503,0.39
		c0.146,0.146,0.219,0.262,0.219,0.347c0,0.066-0.026,0.13-0.078,0.191c-0.052,0.062-0.116,0.092-0.191,0.092
		c-0.01,0-0.036-0.004-0.078-0.014c-0.042-0.009-0.087-0.019-0.134-0.028c0.075,0.189,0.262,0.513,0.56,0.971
		c0.298,0.458,0.6,0.87,0.907,1.233c0.307,0.364,0.55,0.545,0.73,0.545c0.331,0,0.607-0.203,0.829-0.609
		c0.222-0.406,0.456-0.968,0.702-1.687c0.151-0.444,0.267-0.756,0.347-0.936c0.08-0.179,0.167-0.269,0.262-0.269
		c0.085,0,0.156,0.038,0.212,0.113s0.085,0.161,0.085,0.255c0,0.615-0.052,1.229-0.156,1.843s-0.265,1.413-0.482,2.395
		c-0.161,0.718-0.286,1.302-0.375,1.75c-0.09,0.449-0.158,0.896-0.206,1.339c-0.01,0.028-0.012,0.111-0.007,0.248
		c0.005,0.137,0.007,0.215,0.007,0.234c-0.01,0.095-0.041,0.156-0.092,0.184c-0.052,0.029-0.12,0.043-0.206,0.043
		C19.92,54.384,19.837,54.339,19.785,54.249z"/>
	<path fill="#FFFFFF" d="M23.988,53.512c-0.236-0.269-0.404-0.597-0.503-0.985c-0.099-0.387-0.148-0.765-0.148-1.134v-0.638
		c0.009-0.359,0.097-0.905,0.262-1.637c0.165-0.732,0.387-1.387,0.666-1.963c0.278-0.576,0.598-0.865,0.957-0.865h0.127
		c0.029,0.01,0.059,0.024,0.092,0.042c0.033,0.019,0.064,0.033,0.092,0.042c0.028-0.009,0.083-0.047,0.163-0.113
		c0.08-0.066,0.148-0.099,0.206-0.099c0.264,0,0.489,0.208,0.673,0.624c0.185,0.416,0.319,0.898,0.404,1.446
		c0.085,0.548,0.127,0.997,0.127,1.346c0,0.662-0.09,1.321-0.27,1.978s-0.454,1.207-0.822,1.651
		c-0.199,0.227-0.38,0.402-0.546,0.524c-0.166,0.123-0.356,0.185-0.574,0.185C24.526,53.916,24.224,53.781,23.988,53.512z
		 M25.767,52.583c0.25-0.472,0.441-1.011,0.574-1.616c0.132-0.604,0.199-1.077,0.199-1.417c0-0.188-0.026-0.484-0.078-0.886
		c-0.052-0.401-0.125-0.777-0.22-1.126s-0.203-0.562-0.326-0.638c-0.048,0.047-0.095,0.097-0.142,0.149
		c-0.047,0.052-0.094,0.092-0.142,0.121s-0.118,0.042-0.212,0.042c-0.066,0-0.14-0.021-0.22-0.064
		c-0.081-0.042-0.13-0.063-0.149-0.063c-0.019,0-0.052,0.033-0.099,0.099c-0.047,0.066-0.076,0.104-0.085,0.113
		c-0.322,0.595-0.563,1.25-0.723,1.963c-0.161,0.714-0.241,1.425-0.241,2.133c0,0.435,0.075,0.86,0.227,1.275
		c0.151,0.416,0.401,0.624,0.751,0.624C25.221,53.292,25.516,53.056,25.767,52.583z"/>
	<path fill="#FFFFFF" d="M30.394,52.839c-0.322-0.775-0.605-1.644-0.851-2.608l-0.524-2.098c-0.019-0.066-0.045-0.158-0.078-0.276
		s-0.049-0.225-0.049-0.319c0-0.217,0.113-0.326,0.34-0.326c0.095,0,0.177,0.024,0.248,0.071c0.071,0.047,0.106,0.113,0.106,0.199
		c0,0.047-0.007,0.094-0.021,0.142c-0.014,0.047-0.021,0.094-0.021,0.142c0.047,0.227,0.264,1.11,0.652,2.65
		c0.199,0.737,0.387,1.344,0.567,1.821s0.43,0.862,0.751,1.155h0.113c0.132,0,0.257-0.05,0.375-0.149s0.22-0.196,0.305-0.291
		c0.085-0.094,0.142-0.156,0.17-0.184c0.454-0.491,0.78-1.245,0.978-2.261c0.199-1.016,0.298-1.987,0.298-2.913l-0.014-0.638
		c-0.019-0.114-0.038-0.208-0.057-0.284c-0.047-0.142-0.071-0.279-0.071-0.411c0-0.066,0.023-0.127,0.071-0.184
		c0.047-0.057,0.104-0.085,0.17-0.085c0.208,0,0.345,0.168,0.411,0.503c0.066,0.335,0.099,0.668,0.099,1
		c0,1.181-0.14,2.331-0.418,3.451c-0.279,1.12-0.754,1.991-1.424,2.615c-0.312,0.293-0.61,0.439-0.893,0.439
		C31.126,54.001,30.715,53.614,30.394,52.839z"/>
	<path fill="#FFFFFF" d="M36.148,53.902l-0.014-0.851c0-0.302,0.019-0.756,0.057-1.361c0.009-0.142,0.019-0.349,0.028-0.624
		c0.009-0.274,0.014-0.515,0.014-0.723c0-0.057-0.007-0.111-0.021-0.163c-0.014-0.052-0.021-0.102-0.021-0.149l0.085-0.283
		c0.104-1.266,0.175-2.523,0.212-3.77c0.038-0.104,0.078-0.182,0.121-0.234s0.106-0.078,0.191-0.078
		c0.113,0,0.201,0.047,0.262,0.142c0.062,0.095,0.092,0.204,0.092,0.326c0,0.057-0.005,0.106-0.014,0.149
		c-0.01,0.042-0.033,0.087-0.071,0.135c-0.038,0.604-0.057,1.049-0.057,1.332v0.326c0.34-0.491,0.744-0.912,1.212-1.262
		c0.468-0.349,0.952-0.524,1.453-0.524c0.369,0,0.683,0.133,0.943,0.397c0.26,0.265,0.39,0.586,0.39,0.964
		c0,0.491-0.201,0.921-0.603,1.29c-0.401,0.369-0.876,0.667-1.424,0.893c-0.151,0.066-0.378,0.137-0.68,0.212
		c-0.047,0.01-0.137,0.031-0.27,0.064s-0.25,0.073-0.354,0.121c0.312,0.227,0.685,0.468,1.12,0.723
		c0.189,0.113,0.472,0.293,0.85,0.539l0.78,0.567c0.057,0.038,0.191,0.135,0.404,0.291c0.212,0.156,0.42,0.279,0.624,0.369
		s0.395,0.135,0.574,0.135c0.066,0,0.144-0.031,0.234-0.092c0.089-0.062,0.163-0.092,0.22-0.092c0.179,0,0.269,0.1,0.269,0.298
		v0.099c-0.161,0.198-0.307,0.317-0.439,0.354l-0.283,0.014c-0.369,0-0.74-0.108-1.113-0.326c-0.373-0.217-0.829-0.529-1.368-0.936
		c-0.406-0.312-0.68-0.51-0.822-0.595l-0.879-0.524c-0.066-0.047-0.196-0.146-0.39-0.297c-0.194-0.151-0.343-0.227-0.447-0.227
		c-0.028,0.454-0.042,0.912-0.042,1.375c0,0.104-0.005,0.35-0.014,0.737c-0.009,0.388-0.033,0.751-0.071,1.091
		c-0.028,0.407-0.151,0.609-0.369,0.609C36.309,54.341,36.186,54.195,36.148,53.902z M37.239,49.664
		c0.368,0,0.803-0.087,1.304-0.262s0.933-0.418,1.297-0.73c0.364-0.312,0.546-0.661,0.546-1.049c0-0.208-0.066-0.387-0.199-0.539
		s-0.297-0.227-0.496-0.227c-0.293,0-0.614,0.119-0.963,0.354c-0.907,0.567-1.446,1.384-1.616,2.452H37.239z"/>
	<path fill="#FFFFFF" d="M48.139,53.888c-0.378-0.454-0.657-1-0.836-1.637s-0.269-1.24-0.269-1.807c0-0.529,0.099-1.16,0.297-1.892
		c0.199-0.732,0.482-1.387,0.851-1.963s0.803-0.921,1.304-1.035l0.326-0.014c0.312,0,0.635,0.062,0.971,0.184
		c0.335,0.123,0.619,0.303,0.851,0.539c0.231,0.236,0.347,0.52,0.347,0.851c0,0.076-0.026,0.149-0.078,0.22
		c-0.052,0.071-0.116,0.106-0.191,0.106c-0.104,0-0.18-0.035-0.227-0.106S51.389,47.15,51.342,47
		c-0.028-0.17-0.081-0.288-0.156-0.354c-0.161-0.161-0.367-0.288-0.617-0.383c-0.25-0.094-0.494-0.142-0.73-0.142
		c-0.388,0-0.747,0.225-1.077,0.673c-0.331,0.449-0.598,0.973-0.801,1.573s-0.31,1.089-0.319,1.467v0.638
		c0,1.285,0.264,2.225,0.793,2.821c0.18,0.217,0.359,0.39,0.539,0.517c0.18,0.127,0.378,0.191,0.595,0.191
		c0.388,0,0.718-0.146,0.992-0.439s0.479-0.647,0.617-1.063c0.137-0.416,0.21-0.808,0.22-1.176c0.009-0.132,0.004-0.496-0.014-1.091
		v-0.425l-0.766-0.014l-0.793,0.042c-0.057,0-0.154,0.017-0.291,0.05c-0.137,0.033-0.244,0.049-0.319,0.049
		c-0.085,0-0.158-0.028-0.22-0.085s-0.092-0.127-0.092-0.212c0-0.217,0.222-0.34,0.666-0.369l1.659-0.085h0.113
		c0.236,0,0.409,0.014,0.517,0.042c0.109,0.028,0.163,0.123,0.163,0.283v0.723c0,0.604-0.026,1.122-0.078,1.552
		c-0.052,0.43-0.175,0.851-0.368,1.262c-0.194,0.411-0.484,0.787-0.872,1.126c-0.151,0.132-0.326,0.232-0.524,0.298
		c-0.199,0.066-0.402,0.099-0.61,0.099C48.994,54.568,48.517,54.341,48.139,53.888z"/>
	<path fill="#FFFFFF" d="M56.905,54.249c-0.052-0.09-0.078-0.191-0.078-0.305c0-0.17,0.021-0.359,0.063-0.567
		s0.069-0.34,0.078-0.397l0.737-3.813c0.029-0.085,0.043-0.199,0.043-0.34c-0.227,0.369-0.452,0.664-0.673,0.886
		c-0.222,0.222-0.494,0.333-0.815,0.333c-0.312,0-0.624-0.148-0.936-0.446s-0.569-0.6-0.772-0.907
		c-0.203-0.307-0.446-0.702-0.73-1.183c-0.038-0.066-0.104-0.166-0.198-0.298c-0.18-0.274-0.317-0.505-0.411-0.694
		c-0.095-0.189-0.142-0.378-0.142-0.567c0-0.246,0.104-0.369,0.312-0.369c0.085,0,0.222,0.057,0.411,0.17s0.356,0.244,0.503,0.39
		c0.146,0.146,0.219,0.262,0.219,0.347c0,0.066-0.026,0.13-0.078,0.191c-0.052,0.062-0.116,0.092-0.191,0.092
		c-0.01,0-0.036-0.004-0.078-0.014c-0.042-0.009-0.087-0.019-0.134-0.028c0.075,0.189,0.262,0.513,0.56,0.971
		c0.298,0.458,0.6,0.87,0.907,1.233c0.307,0.364,0.55,0.545,0.73,0.545c0.331,0,0.607-0.203,0.829-0.609
		c0.222-0.406,0.456-0.968,0.702-1.687c0.151-0.444,0.267-0.756,0.347-0.936c0.08-0.179,0.167-0.269,0.262-0.269
		c0.085,0,0.156,0.038,0.212,0.113s0.085,0.161,0.085,0.255c0,0.615-0.052,1.229-0.156,1.843s-0.265,1.413-0.482,2.395
		c-0.161,0.718-0.286,1.302-0.375,1.75c-0.09,0.449-0.158,0.896-0.206,1.339c-0.01,0.028-0.012,0.111-0.007,0.248
		c0.005,0.137,0.007,0.215,0.007,0.234c-0.01,0.095-0.041,0.156-0.092,0.184c-0.052,0.029-0.12,0.043-0.206,0.043
		C57.04,54.384,56.957,54.339,56.905,54.249z"/>
	<path fill="#FFFFFF" d="M60.569,53.888c-0.057-0.057-0.095-0.114-0.113-0.17v-0.269c0-0.614,0.066-1.401,0.198-2.36
		s0.274-1.774,0.425-2.445c0.085-0.416,0.187-0.753,0.305-1.014c0.118-0.26,0.319-0.39,0.603-0.39c0.462,0,0.813,0.335,1.049,1.006
		c0.236,0.671,0.444,1.545,0.624,2.622c0.019,0.113,0.054,0.307,0.106,0.581c0.052,0.274,0.102,0.473,0.149,0.595
		c0.235-0.189,0.466-0.524,0.688-1.006c0.221-0.482,0.492-1.148,0.814-1.999c0.367-0.973,0.672-1.701,0.914-2.183
		c0.24-0.482,0.488-0.723,0.744-0.723c0.283,0,0.482,0.307,0.596,0.921s0.207,1.507,0.283,2.679
		c0.057,0.803,0.107,1.408,0.156,1.814c0.047,0.406,0.121,0.704,0.227,0.893c0.018,0.028,0.059,0.071,0.119,0.127
		c0.063,0.057,0.092,0.09,0.092,0.099c0.01,0,0.016,0.038,0.016,0.114c0,0.189-0.1,0.283-0.299,0.283
		c-0.207,0-0.355-0.102-0.445-0.305s-0.148-0.397-0.178-0.581c-0.027-0.184-0.047-0.3-0.057-0.347
		c-0.113-0.681-0.184-1.19-0.213-1.531l-0.17-2.41c-0.01-0.161-0.027-0.335-0.057-0.524c-0.027-0.189-0.07-0.349-0.127-0.482
		l-0.086,0.085l-0.254,0.524c-0.029,0.047-0.146,0.34-0.355,0.878l-0.609,1.616c-0.689,1.786-1.295,2.679-1.814,2.679
		c-0.265,0-0.46-0.193-0.588-0.581c-0.128-0.387-0.258-0.982-0.39-1.786c-0.104-0.624-0.201-1.115-0.291-1.474
		c-0.09-0.359-0.215-0.628-0.375-0.808c-0.019-0.019-0.042-0.045-0.071-0.078s-0.055-0.057-0.078-0.071s-0.054-0.021-0.092-0.021
		c-0.133,0.17-0.232,0.369-0.298,0.595c-0.066,0.227-0.116,0.438-0.149,0.631c-0.033,0.194-0.054,0.324-0.063,0.39
		c-0.133,0.747-0.232,1.356-0.298,1.829c-0.066,0.473-0.099,0.94-0.099,1.403c0,0.066,0.016,0.137,0.05,0.213
		c0.033,0.076,0.049,0.137,0.049,0.184c0,0.161-0.042,0.347-0.127,0.56c-0.085,0.212-0.199,0.319-0.34,0.319
		C60.682,53.973,60.625,53.944,60.569,53.888z"/>
	<path fill="#FFFFFF" d="M73.224,53.016c-0.256-0.562-0.383-1.207-0.383-1.935c0-0.633,0.102-1.33,0.305-2.09
		s0.524-1.415,0.964-1.963s0.984-0.822,1.637-0.822c0.35,0,0.683,0.052,0.999,0.156c0.316,0.104,0.664,0.255,1.042,0.454
		c0.057,0.019,0.085,0.059,0.085,0.121s0,0.097,0,0.106c0,0.094-0.028,0.167-0.085,0.22c-0.057,0.052-0.133,0.078-0.227,0.078
		c-0.104,0-0.223-0.042-0.354-0.127c-0.133-0.085-0.231-0.146-0.298-0.184c-0.368-0.17-0.746-0.255-1.134-0.255
		c-0.529,0-0.971,0.253-1.325,0.758c-0.354,0.506-0.616,1.096-0.786,1.771c-0.171,0.676-0.256,1.269-0.256,1.779
		c0,1.285,0.308,2.008,0.922,2.168h0.326c0.434,0,0.848-0.083,1.239-0.248c0.393-0.165,0.73-0.404,1.014-0.715
		c0.019-0.009,0.043-0.019,0.071-0.028s0.057-0.014,0.085-0.014c0.075,0,0.142,0.028,0.198,0.085s0.085,0.123,0.085,0.198
		s-0.033,0.151-0.099,0.227c-0.066,0.076-0.109,0.123-0.128,0.142c-0.274,0.312-0.652,0.55-1.134,0.716
		c-0.482,0.165-0.959,0.248-1.432,0.248C73.923,53.859,73.479,53.578,73.224,53.016z"/>
	<path fill="#FFFFFF" d="M80.169,53.512c-0.236-0.269-0.404-0.597-0.503-0.985c-0.1-0.387-0.149-0.765-0.149-1.134v-0.638
		c0.01-0.359,0.097-0.905,0.263-1.637c0.165-0.732,0.387-1.387,0.666-1.963c0.278-0.576,0.598-0.865,0.957-0.865h0.127
		c0.028,0.01,0.06,0.024,0.093,0.042c0.032,0.019,0.063,0.033,0.092,0.042c0.028-0.009,0.082-0.047,0.163-0.113
		c0.08-0.066,0.148-0.099,0.205-0.099c0.265,0,0.489,0.208,0.674,0.624c0.184,0.416,0.318,0.898,0.403,1.446
		s0.128,0.997,0.128,1.346c0,0.662-0.09,1.321-0.27,1.978s-0.453,1.207-0.822,1.651c-0.198,0.227-0.38,0.402-0.545,0.524
		c-0.166,0.123-0.357,0.185-0.574,0.185C80.708,53.916,80.406,53.781,80.169,53.512z M81.948,52.583
		c0.251-0.472,0.442-1.011,0.574-1.616c0.133-0.604,0.198-1.077,0.198-1.417c0-0.188-0.025-0.484-0.077-0.886
		c-0.053-0.401-0.126-0.777-0.22-1.126c-0.095-0.35-0.204-0.562-0.326-0.638c-0.048,0.047-0.095,0.097-0.142,0.149
		c-0.048,0.052-0.095,0.092-0.142,0.121c-0.048,0.028-0.119,0.042-0.213,0.042c-0.066,0-0.14-0.021-0.22-0.064
		s-0.13-0.063-0.149-0.063c-0.019,0-0.052,0.033-0.099,0.099c-0.048,0.066-0.076,0.104-0.085,0.113
		c-0.321,0.595-0.563,1.25-0.723,1.963c-0.161,0.714-0.241,1.425-0.241,2.133c0,0.435,0.075,0.86,0.227,1.275
		c0.151,0.416,0.401,0.624,0.751,0.624C81.403,53.292,81.698,53.056,81.948,52.583z"/>
	<path fill="#FFFFFF" d="M85.171,53.888c-0.057-0.057-0.094-0.114-0.113-0.17v-0.269c0-0.614,0.066-1.401,0.199-2.36
		c0.132-0.959,0.273-1.774,0.425-2.445c0.085-0.416,0.187-0.753,0.305-1.014c0.118-0.26,0.319-0.39,0.603-0.39
		c0.463,0,0.813,0.335,1.049,1.006s0.443,1.545,0.623,2.622c0.02,0.113,0.055,0.307,0.106,0.581
		c0.052,0.274,0.102,0.473,0.149,0.595c0.235-0.189,0.465-0.524,0.688-1.006c0.222-0.482,0.493-1.148,0.814-1.999
		c0.368-0.973,0.673-1.701,0.914-2.183s0.489-0.723,0.744-0.723c0.283,0,0.482,0.307,0.596,0.921s0.207,1.507,0.283,2.679
		c0.057,0.803,0.108,1.408,0.156,1.814c0.047,0.406,0.122,0.704,0.227,0.893c0.019,0.028,0.059,0.071,0.12,0.127
		s0.092,0.09,0.092,0.099c0.01,0,0.015,0.038,0.015,0.114c0,0.189-0.1,0.283-0.298,0.283c-0.208,0-0.356-0.102-0.446-0.305
		s-0.148-0.397-0.177-0.581s-0.048-0.3-0.057-0.347c-0.114-0.681-0.185-1.19-0.213-1.531l-0.17-2.41
		c-0.01-0.161-0.028-0.335-0.057-0.524c-0.028-0.189-0.071-0.349-0.128-0.482l-0.085,0.085l-0.255,0.524
		c-0.028,0.047-0.146,0.34-0.354,0.878l-0.609,1.616c-0.69,1.786-1.295,2.679-1.814,2.679c-0.265,0-0.461-0.193-0.588-0.581
		c-0.128-0.387-0.258-0.982-0.39-1.786c-0.104-0.624-0.201-1.115-0.291-1.474c-0.09-0.359-0.215-0.628-0.375-0.808
		c-0.02-0.019-0.043-0.045-0.071-0.078s-0.055-0.057-0.078-0.071s-0.055-0.021-0.092-0.021c-0.133,0.17-0.231,0.369-0.298,0.595
		c-0.066,0.227-0.116,0.438-0.148,0.631c-0.033,0.194-0.055,0.324-0.064,0.39c-0.132,0.747-0.231,1.356-0.297,1.829
		c-0.066,0.473-0.1,0.94-0.1,1.403c0,0.066,0.017,0.137,0.05,0.213s0.05,0.137,0.05,0.184c0,0.161-0.043,0.347-0.128,0.56
		c-0.085,0.212-0.198,0.319-0.34,0.319C85.286,53.973,85.228,53.944,85.171,53.888z"/>
	<path fill="#FFFFFF" d="M96.994,54.724c-0.228,0-0.391-0.276-0.489-0.829c-0.1-0.553-0.173-1.207-0.22-1.963
		c-0.02-0.227-0.033-0.364-0.043-0.411l-1.176,0.397h-0.085c-0.085,0-0.159-0.026-0.22-0.078c-0.062-0.052-0.093-0.12-0.093-0.206
		c0-0.104,0.085-0.236,0.256-0.396c0.17-0.161,0.312-0.241,0.425-0.241c0.038,0,0.087,0.014,0.148,0.042s0.106,0.042,0.135,0.042
		c0.076-0.009,0.189-0.04,0.341-0.092c0.15-0.052,0.227-0.092,0.227-0.121v-2.537c0-0.435,0.08-0.886,0.241-1.354
		c0.16-0.468,0.398-0.857,0.715-1.169c0.316-0.312,0.702-0.468,1.155-0.468c0.378,0,0.699,0.14,0.964,0.418s0.461,0.621,0.588,1.027
		c0.128,0.406,0.191,0.799,0.191,1.176c0,0.548-0.144,1.023-0.432,1.425c-0.288,0.401-0.641,0.734-1.056,0.999
		c-0.416,0.265-0.927,0.539-1.531,0.822c-0.113,0.057-0.17,0.09-0.17,0.099c-0.01,0-0.015,0.028-0.015,0.085
		c0,1.001,0.09,1.819,0.27,2.452c0.019,0.057,0.066,0.102,0.142,0.134c0.076,0.033,0.137,0.066,0.185,0.099
		c0.047,0.034,0.071,0.092,0.071,0.177c0,0.076-0.028,0.145-0.086,0.206c-0.057,0.062-0.118,0.113-0.184,0.156
		c-0.066,0.042-0.109,0.073-0.128,0.092L96.994,54.724z M98.715,49.579c0.515-0.444,0.772-0.978,0.772-1.602
		c0-0.227-0.048-0.503-0.142-0.829c-0.095-0.326-0.229-0.611-0.404-0.857c-0.175-0.246-0.38-0.368-0.616-0.368
		c-0.614,0-1.027,0.338-1.24,1.013c-0.213,0.676-0.319,1.396-0.319,2.162c0,0.633,0.033,1.148,0.1,1.545
		C97.583,50.377,98.2,50.023,98.715,49.579z"/>
	<path fill="#FFFFFF" d="M102.513,54.284c-0.449-0.217-0.674-0.553-0.674-1.006c0-0.434,0.236-0.843,0.709-1.226
		c0.473-0.383,1.025-0.688,1.658-0.915c0.633-0.227,1.152-0.34,1.56-0.34c0.613,0,1.219,0.265,1.813,0.793v-0.113v-0.113
		l-0.07-0.766c-0.066-0.642-0.104-0.997-0.113-1.063c-0.085-0.888-0.303-1.693-0.652-2.417c-0.35-0.723-0.884-1.084-1.602-1.084
		c-0.435,0-0.829,0.085-1.184,0.255c-0.354,0.17-0.636,0.435-0.843,0.794c-0.095,0.151-0.143,0.279-0.143,0.383
		c0,0.047,0.031,0.104,0.093,0.17s0.092,0.127,0.092,0.184c0,0.18-0.137,0.27-0.411,0.27c-0.255,0-0.383-0.161-0.383-0.482
		c0-0.435,0.145-0.82,0.433-1.155s0.649-0.593,1.084-0.772c0.435-0.179,0.865-0.269,1.29-0.269c0.907,0,1.58,0.439,2.02,1.318
		s0.711,1.871,0.815,2.977l0.24,2.324c0.066,0,0.126-0.019,0.178-0.057c0.052-0.038,0.115-0.099,0.191-0.184
		c0.15-0.17,0.288-0.255,0.411-0.255c0.17,0,0.255,0.085,0.255,0.255c0,0.104-0.071,0.222-0.213,0.354
		c-0.142,0.133-0.283,0.253-0.425,0.362c-0.142,0.108-0.236,0.182-0.284,0.219c-0.028,0.019-0.042,0.038-0.042,0.057
		c0,0.104,0.009,0.241,0.028,0.411l0.014,0.425c0,0.284-0.104,0.425-0.312,0.425c-0.113,0-0.2-0.064-0.262-0.191
		s-0.102-0.246-0.121-0.354c-0.019-0.108-0.033-0.177-0.042-0.205l-0.043-0.043l-0.184,0.085l-0.284,0.156
		c-0.651,0.369-1.209,0.647-1.672,0.836c-0.463,0.189-0.955,0.284-1.475,0.284S102.961,54.502,102.513,54.284z M105.673,53.625
		c0.629-0.279,1.188-0.593,1.68-0.943c0.019-0.009,0.047-0.038,0.085-0.085l-0.042-0.142c-0.151-0.34-0.369-0.6-0.652-0.78
		c-0.283-0.179-0.609-0.269-0.978-0.269c-0.293,0-0.716,0.092-1.269,0.276s-1.04,0.42-1.46,0.708
		c-0.421,0.289-0.631,0.588-0.631,0.9c0,0.255,0.188,0.444,0.566,0.567c0.378,0.123,0.724,0.184,1.035,0.184
		C104.49,54.043,105.045,53.904,105.673,53.625z"/>
	<path fill="#FFFFFF" d="M115.51,53.037c-0.42-0.689-0.786-1.365-1.099-2.027l-0.297-0.638l-0.142-0.326l-0.439-0.878
		c-0.123-0.227-0.354-0.59-0.694-1.091c-0.341-0.501-0.563-0.751-0.667-0.751h-0.085l-0.085,0.27
		c-0.151,0.491-0.248,0.999-0.29,1.523c-0.043,0.524-0.064,1.155-0.064,1.892v0.439c0,0.501,0.043,0.893,0.128,1.176
		c0.293-0.019,0.439,0.081,0.439,0.298c0,0.104-0.057,0.196-0.17,0.276s-0.223,0.121-0.326,0.121c-0.227,0-0.378-0.125-0.453-0.376
		c-0.076-0.25-0.138-0.564-0.185-0.942v-1.021c0-0.793,0.028-1.455,0.085-1.984c0.009-0.057,0.03-0.297,0.063-0.723
		s0.125-0.791,0.276-1.099c0.151-0.307,0.354-0.46,0.609-0.46c0.359,0,0.759,0.329,1.198,0.985c0.439,0.657,0.834,1.349,1.184,2.077
		l0.694,1.531c0.255,0.558,0.651,1.186,1.19,1.885l0.042-0.042c0.01-0.028,0.026-0.087,0.05-0.177
		c0.023-0.089,0.05-0.191,0.078-0.305c0.085-0.359,0.151-0.732,0.198-1.12c0.048-0.387,0.095-0.878,0.142-1.474
		c0.038-0.491,0.071-0.85,0.1-1.077l0.213-1.842c0.009-0.047,0.025-0.187,0.049-0.418s0.076-0.433,0.156-0.603
		s0.187-0.255,0.319-0.255c0.179,0,0.269,0.09,0.269,0.269c0,0.161-0.047,0.42-0.142,0.779c-0.01,0.057-0.023,0.119-0.042,0.185
		c-0.02,0.066-0.033,0.137-0.043,0.212c-0.019,0.218-0.042,0.43-0.07,0.638c-0.028,0.208-0.048,0.345-0.057,0.411l-0.171,1.729
		c-0.037,0.331-0.07,0.655-0.099,0.971s-0.057,0.569-0.085,0.758c-0.038,0.444-0.123,0.928-0.256,1.453
		c-0.132,0.524-0.307,0.787-0.524,0.787C116.264,54.072,115.931,53.727,115.51,53.037z"/>
	<path fill="#FFFFFF" d="M120.5,53.852c-0.138-0.042-0.206-0.139-0.206-0.291c0-0.113,0.05-0.193,0.149-0.241
		c0.099-0.047,0.21-0.071,0.333-0.071c0.198,0,0.358,0.019,0.481,0.057l0.652-0.071l-0.043-0.085
		c-0.019-0.34-0.028-0.85-0.028-1.531V51.01c0-1.011-0.033-1.828-0.099-2.452c-0.095-0.161-0.158-0.34-0.191-0.539
		c-0.033-0.199-0.06-0.449-0.078-0.751l-0.043-0.468c-0.132,0-0.273,0.026-0.425,0.078s-0.283,0.116-0.396,0.191
		c0.057,0.038,0.092,0.076,0.105,0.113c0.015,0.038,0.021,0.09,0.021,0.156c0,0.113-0.028,0.191-0.085,0.234
		s-0.142,0.064-0.255,0.064c-0.161,0-0.305-0.033-0.433-0.099c-0.127-0.066-0.191-0.17-0.191-0.312c0-0.274,0.18-0.498,0.539-0.673
		c0.358-0.175,0.766-0.3,1.219-0.375s0.831-0.113,1.134-0.113c0.321,0,0.685,0.042,1.092,0.127c0.405,0.085,0.609,0.232,0.609,0.439
		c0,0.066-0.028,0.127-0.085,0.184s-0.123,0.085-0.199,0.085c-0.094,0-0.245-0.038-0.453-0.113
		c-0.189-0.075-0.336-0.113-0.439-0.113l-0.964,0.014c0,0.293,0.023,0.619,0.071,0.978c0.037,0.378,0.057,0.662,0.057,0.85
		c0.009,0.425,0.023,1.083,0.042,1.97c0.02,0.888,0.033,1.706,0.043,2.452c0.009,0,0.014,0.042,0.014,0.127
		c0,0.038-0.009,0.076-0.028,0.113l0.596-0.057h0.283c0.255,0,0.475,0.019,0.659,0.057c0.185,0.038,0.276,0.137,0.276,0.298
		c0,0.132-0.057,0.222-0.17,0.269c-0.066-0.009-0.293-0.014-0.681-0.014s-0.614,0.005-0.68,0.014
		c-0.256,0.019-0.501,0.047-0.737,0.085c-0.435,0.057-0.756,0.085-0.964,0.085C120.804,53.916,120.636,53.895,120.5,53.852z"/>
	<path fill="#FFFFFF" d="M126.658,53.512c-0.236-0.269-0.404-0.597-0.503-0.985c-0.1-0.387-0.149-0.765-0.149-1.134v-0.638
		c0.01-0.359,0.097-0.905,0.263-1.637c0.165-0.732,0.387-1.387,0.666-1.963c0.278-0.576,0.598-0.865,0.957-0.865h0.127
		c0.028,0.01,0.06,0.024,0.093,0.042c0.032,0.019,0.063,0.033,0.092,0.042c0.028-0.009,0.082-0.047,0.163-0.113
		c0.08-0.066,0.148-0.099,0.205-0.099c0.265,0,0.489,0.208,0.674,0.624c0.184,0.416,0.318,0.898,0.403,1.446
		s0.128,0.997,0.128,1.346c0,0.662-0.09,1.321-0.27,1.978s-0.453,1.207-0.822,1.651c-0.198,0.227-0.38,0.402-0.545,0.524
		c-0.166,0.123-0.357,0.185-0.574,0.185C127.196,53.916,126.894,53.781,126.658,53.512z M128.436,52.583
		c0.251-0.472,0.442-1.011,0.574-1.616c0.133-0.604,0.198-1.077,0.198-1.417c0-0.188-0.025-0.484-0.077-0.886
		c-0.053-0.401-0.126-0.777-0.22-1.126c-0.095-0.35-0.204-0.562-0.326-0.638c-0.048,0.047-0.095,0.097-0.142,0.149
		c-0.048,0.052-0.095,0.092-0.142,0.121c-0.048,0.028-0.119,0.042-0.213,0.042c-0.066,0-0.14-0.021-0.22-0.064
		s-0.13-0.063-0.149-0.063c-0.019,0-0.052,0.033-0.099,0.099c-0.048,0.066-0.076,0.104-0.085,0.113
		c-0.321,0.595-0.563,1.25-0.723,1.963c-0.161,0.714-0.241,1.425-0.241,2.133c0,0.435,0.075,0.86,0.227,1.275
		c0.151,0.416,0.401,0.624,0.751,0.624C127.891,53.292,128.186,53.056,128.436,52.583z"/>
	<path fill="#FFFFFF" d="M135.99,53.037c-0.42-0.689-0.786-1.365-1.099-2.027l-0.297-0.638l-0.142-0.326l-0.439-0.878
		c-0.123-0.227-0.354-0.59-0.694-1.091c-0.341-0.501-0.563-0.751-0.667-0.751h-0.085l-0.085,0.27
		c-0.151,0.491-0.248,0.999-0.29,1.523c-0.043,0.524-0.064,1.155-0.064,1.892v0.439c0,0.501,0.043,0.893,0.128,1.176
		c0.293-0.019,0.439,0.081,0.439,0.298c0,0.104-0.057,0.196-0.17,0.276s-0.223,0.121-0.326,0.121c-0.227,0-0.378-0.125-0.453-0.376
		c-0.076-0.25-0.138-0.564-0.185-0.942v-1.021c0-0.793,0.028-1.455,0.085-1.984c0.009-0.057,0.03-0.297,0.063-0.723
		s0.125-0.791,0.276-1.099c0.151-0.307,0.354-0.46,0.609-0.46c0.359,0,0.759,0.329,1.198,0.985c0.439,0.657,0.834,1.349,1.184,2.077
		l0.694,1.531c0.255,0.558,0.651,1.186,1.19,1.885l0.042-0.042c0.01-0.028,0.026-0.087,0.05-0.177
		c0.023-0.089,0.05-0.191,0.078-0.305c0.085-0.359,0.151-0.732,0.198-1.12c0.048-0.387,0.095-0.878,0.142-1.474
		c0.038-0.491,0.071-0.85,0.1-1.077l0.213-1.842c0.009-0.047,0.025-0.187,0.049-0.418s0.076-0.433,0.156-0.603
		s0.187-0.255,0.319-0.255c0.179,0,0.269,0.09,0.269,0.269c0,0.161-0.047,0.42-0.142,0.779c-0.01,0.057-0.023,0.119-0.042,0.185
		c-0.02,0.066-0.033,0.137-0.043,0.212c-0.019,0.218-0.042,0.43-0.07,0.638c-0.028,0.208-0.048,0.345-0.057,0.411l-0.171,1.729
		c-0.037,0.331-0.07,0.655-0.099,0.971s-0.057,0.569-0.085,0.758c-0.038,0.444-0.123,0.928-0.256,1.453
		c-0.132,0.524-0.307,0.787-0.524,0.787C136.744,54.072,136.411,53.727,135.99,53.037z"/>
	<path fill="#FFFFFF" d="M143.403,54.284c-0.449-0.217-0.674-0.553-0.674-1.006c0-0.434,0.236-0.843,0.709-1.226
		c0.473-0.383,1.025-0.688,1.658-0.915c0.633-0.227,1.152-0.34,1.56-0.34c0.613,0,1.219,0.265,1.813,0.793v-0.113v-0.113
		l-0.07-0.766c-0.066-0.642-0.104-0.997-0.113-1.063c-0.085-0.888-0.303-1.693-0.652-2.417c-0.35-0.723-0.884-1.084-1.602-1.084
		c-0.435,0-0.829,0.085-1.184,0.255c-0.354,0.17-0.636,0.435-0.843,0.794c-0.095,0.151-0.143,0.279-0.143,0.383
		c0,0.047,0.031,0.104,0.093,0.17s0.092,0.127,0.092,0.184c0,0.18-0.137,0.27-0.411,0.27c-0.255,0-0.383-0.161-0.383-0.482
		c0-0.435,0.145-0.82,0.433-1.155s0.649-0.593,1.084-0.772c0.435-0.179,0.865-0.269,1.29-0.269c0.907,0,1.58,0.439,2.02,1.318
		s0.711,1.871,0.815,2.977l0.24,2.324c0.066,0,0.126-0.019,0.178-0.057c0.052-0.038,0.115-0.099,0.191-0.184
		c0.15-0.17,0.288-0.255,0.411-0.255c0.17,0,0.255,0.085,0.255,0.255c0,0.104-0.071,0.222-0.213,0.354
		c-0.142,0.133-0.283,0.253-0.425,0.362c-0.142,0.108-0.236,0.182-0.284,0.219c-0.028,0.019-0.042,0.038-0.042,0.057
		c0,0.104,0.009,0.241,0.028,0.411l0.014,0.425c0,0.284-0.104,0.425-0.312,0.425c-0.113,0-0.2-0.064-0.262-0.191
		s-0.102-0.246-0.121-0.354c-0.019-0.108-0.033-0.177-0.042-0.205l-0.043-0.043l-0.184,0.085l-0.284,0.156
		c-0.651,0.369-1.209,0.647-1.672,0.836c-0.463,0.189-0.955,0.284-1.475,0.284S143.851,54.502,143.403,54.284z M146.563,53.625
		c0.629-0.279,1.188-0.593,1.68-0.943c0.019-0.009,0.047-0.038,0.085-0.085l-0.042-0.142c-0.151-0.34-0.369-0.6-0.652-0.78
		c-0.283-0.179-0.609-0.269-0.978-0.269c-0.293,0-0.716,0.092-1.269,0.276s-1.04,0.42-1.46,0.708
		c-0.421,0.289-0.631,0.588-0.631,0.9c0,0.255,0.188,0.444,0.566,0.567c0.378,0.123,0.724,0.184,1.035,0.184
		C145.379,54.043,145.935,53.904,146.563,53.625z"/>
	<path fill="#FFFFFF" d="M153.999,54.724c-0.228,0-0.391-0.276-0.489-0.829c-0.1-0.553-0.173-1.207-0.22-1.963
		c-0.02-0.227-0.033-0.364-0.043-0.411l-1.176,0.397h-0.085c-0.085,0-0.159-0.026-0.22-0.078c-0.062-0.052-0.093-0.12-0.093-0.206
		c0-0.104,0.085-0.236,0.256-0.396c0.17-0.161,0.312-0.241,0.425-0.241c0.038,0,0.087,0.014,0.148,0.042s0.106,0.042,0.135,0.042
		c0.076-0.009,0.189-0.04,0.341-0.092c0.15-0.052,0.227-0.092,0.227-0.121v-2.537c0-0.435,0.08-0.886,0.241-1.354
		c0.16-0.468,0.398-0.857,0.715-1.169c0.316-0.312,0.702-0.468,1.155-0.468c0.378,0,0.699,0.14,0.964,0.418s0.461,0.621,0.588,1.027
		c0.128,0.406,0.191,0.799,0.191,1.176c0,0.548-0.144,1.023-0.432,1.425c-0.288,0.401-0.641,0.734-1.056,0.999
		c-0.416,0.265-0.927,0.539-1.531,0.822c-0.113,0.057-0.17,0.09-0.17,0.099c-0.01,0-0.015,0.028-0.015,0.085
		c0,1.001,0.09,1.819,0.27,2.452c0.019,0.057,0.066,0.102,0.142,0.134c0.076,0.033,0.137,0.066,0.185,0.099
		c0.047,0.034,0.071,0.092,0.071,0.177c0,0.076-0.028,0.145-0.086,0.206c-0.057,0.062-0.118,0.113-0.184,0.156
		c-0.066,0.042-0.109,0.073-0.128,0.092L153.999,54.724z M155.72,49.579c0.515-0.444,0.772-0.978,0.772-1.602
		c0-0.227-0.048-0.503-0.142-0.829c-0.095-0.326-0.229-0.611-0.404-0.857c-0.175-0.246-0.38-0.368-0.616-0.368
		c-0.614,0-1.027,0.338-1.24,1.013c-0.213,0.676-0.319,1.396-0.319,2.162c0,0.633,0.033,1.148,0.1,1.545
		C154.588,50.377,155.205,50.023,155.72,49.579z"/>
	<path fill="#FFFFFF" d="M161.169,54.724c-0.228,0-0.391-0.276-0.489-0.829c-0.1-0.553-0.173-1.207-0.22-1.963
		c-0.02-0.227-0.033-0.364-0.043-0.411l-1.176,0.397h-0.085c-0.085,0-0.159-0.026-0.22-0.078c-0.062-0.052-0.093-0.12-0.093-0.206
		c0-0.104,0.085-0.236,0.256-0.396c0.17-0.161,0.312-0.241,0.425-0.241c0.038,0,0.087,0.014,0.148,0.042s0.106,0.042,0.135,0.042
		c0.076-0.009,0.189-0.04,0.341-0.092c0.15-0.052,0.227-0.092,0.227-0.121v-2.537c0-0.435,0.08-0.886,0.241-1.354
		c0.16-0.468,0.398-0.857,0.715-1.169c0.316-0.312,0.702-0.468,1.155-0.468c0.378,0,0.699,0.14,0.964,0.418s0.461,0.621,0.588,1.027
		c0.128,0.406,0.191,0.799,0.191,1.176c0,0.548-0.144,1.023-0.432,1.425c-0.288,0.401-0.641,0.734-1.056,0.999
		c-0.416,0.265-0.927,0.539-1.531,0.822c-0.113,0.057-0.17,0.09-0.17,0.099c-0.01,0-0.015,0.028-0.015,0.085
		c0,1.001,0.09,1.819,0.27,2.452c0.019,0.057,0.066,0.102,0.142,0.134c0.076,0.033,0.137,0.066,0.185,0.099
		c0.047,0.034,0.071,0.092,0.071,0.177c0,0.076-0.028,0.145-0.086,0.206c-0.057,0.062-0.118,0.113-0.184,0.156
		c-0.066,0.042-0.109,0.073-0.128,0.092L161.169,54.724z M162.891,49.579c0.515-0.444,0.772-0.978,0.772-1.602
		c0-0.227-0.048-0.503-0.142-0.829c-0.095-0.326-0.229-0.611-0.404-0.857c-0.175-0.246-0.38-0.368-0.616-0.368
		c-0.614,0-1.027,0.338-1.24,1.013c-0.213,0.676-0.319,1.396-0.319,2.162c0,0.633,0.033,1.148,0.1,1.545
		C161.759,50.377,162.375,50.023,162.891,49.579z"/>
</g>
</svg>
